<?xml version="1.0" encoding="UTF-8"?><svg xmlns="http://www.w3.org/2000/svg" xmlns:xlink="http://www.w3.org/1999/xlink" version="1.1" id="Layer_1" x="0px" y="0px" viewBox="0 0 128 128" xml:space="preserve"><style type="text/css">.st0{fill:#FFFFFF;}</style><path d="M64 128C28.7 128 0 99.4 0 64 0 28.7 28.7 0 64 0s64 28.7 64 64c0 35.4-28.7 64-64 64z"/><path class="st0" d="M64 117.3c-.4 0-.8-.1-1.1-.3L29.2 95.8c-.3-.2-.6-.5-.7-.8-.1-.1-.1-.3-.1-.4-.1-.3-.1-.5 0-.8v-.1l11-50.2c0-.2.1-.3.2-.5 0-.1.1-.2.2-.3l22.7-31c.4-.5 1-.8 1.6-.8.6 0 1.2.3 1.6.8l22.7 31c.2.2.3.5.4.8l11 50.2v.9c0 .1-.1.2-.1.4-.2.3-.4.6-.7.8L65.1 117c-.3.2-.7.3-1.1.3zM37.2 96.1l23.2 14.6-4.6-14.6H37.2zm35 0l-4.6 14.6 23.2-14.6H72.2zm-12.2 0l4 12.6 4-12.6h-8zm13.5-4h20.8L81 68.6l-7.5 23.5zm-14.8 0h10.6l9-28.3L64 38.6 49.7 63.8l9 28.3zm-25 0h20.8L47 68.6 33.7 92.1zm48.9-28.7L93 81.6l-6.6-30.1-3.8 11.9zm-41-11.8l-6.6 30 10.3-18.2-3.7-11.8zM66 34.1l14 24.5 4.6-14.4L66 18.9v15.2zM43.5 44.2L48 58.6l14-24.5V18.9L43.5 44.2z" fill="#FFF"/><metadata><rdf:RDF xmlns:rdf="http://www.w3.org/1999/02/22-rdf-syntax-ns#" xmlns:rdfs="http://www.w3.org/2000/01/rdf-schema#" xmlns:dc="http://purl.org/dc/elements/1.1/"><rdf:Description about="https://iconscout.com/legal#licenses" dc:title="eos" dc:description="eos" dc:publisher="Iconscout" dc:date="2018-01-14" dc:format="image/svg+xml" dc:language="en"><dc:creator><rdf:Bag><rdf:li>Icon Mafia</rdf:li></rdf:Bag></dc:creator></rdf:Description></rdf:RDF></metadata></svg>